HIERARCHY
ROOT hips
{
  OFFSET 4.514983404067499e-9 10.105397940993303 1.318478203070619
  CHANNELS 6 Xposition Yposition Zposition Yrotation Xrotation Zrotation
  JOINT spine
  {
    OFFSET -3.891297943093837e-9 0.5743022203102706 0
    CHANNELS 3 Yrotation Xrotation Zrotation
    JOINT chest
    {
      OFFSET 0 1.2550312016247926 0
      CHANNELS 3 Yrotation Xrotation Zrotation
      JOINT upperChest
      {
        OFFSET 0 1.2059856050120283 0
        CHANNELS 3 Yrotation Xrotation Zrotation
        JOINT neck
        {
          OFFSET 0 1.5290392449770056 0
          CHANNELS 3 Yrotation Xrotation Zrotation
          JOINT head
          {
            OFFSET 0 0.8186276690878121 0
            CHANNELS 3 Yrotation Xrotation Zrotation
            JOINT leftEye
            {
              OFFSET 0.4540883942785781 -0.2684596961258452 0.6133497327236779
              CHANNELS 3 Yrotation Xrotation Zrotation
              End Site
              {
                OFFSET 0.4540883942785781 -0.2684596961258452 0.6133497327236779
              }
            }
            JOINT rightEye
            {
              OFFSET -0.4540889229417456 -0.26846010916843954 0.6133525398671689
              CHANNELS 3 Yrotation Xrotation Zrotation
              End Site
              {
                OFFSET -0.4540889229417456 -0.26846010916843954 0.6133525398671689
              }
            }
          }
        }
        JOINT leftShoulder
        {
          OFFSET 1.1700010731725468 -0.4176065950681176 0
          CHANNELS 3 Yrotation Xrotation Zrotation
          JOINT leftUpperArm
          {
            OFFSET 1.1803911524554955 0 0
            CHANNELS 3 Yrotation Xrotation Zrotation
            JOINT leftLowerArm
            {
              OFFSET 2.4406171707858904 0 0
              CHANNELS 3 Yrotation Xrotation Zrotation
              JOINT leftHand
              {
                OFFSET 2.3832177068873874 0 0
                CHANNELS 3 Yrotation Xrotation Zrotation
                JOINT leftIndexProximal
                {
                  OFFSET 0.7310175006235151 0.08192774217833776 0.20404791572985242
                  CHANNELS 3 Yrotation Xrotation Zrotation
                  JOINT leftIndexIntermediate
                  {
                    OFFSET 0.3688845439429529 -0.010662034455094949 -0.014226011560394963
                    CHANNELS 3 Yrotation Xrotation Zrotation
                    JOINT leftIndexDistal
                    {
                      OFFSET 0.2271119941018298 -0.007897656478952575 -0.007580683836364496
                      CHANNELS 3 Yrotation Xrotation Zrotation
                      End Site
                      {
                        OFFSET 0.2271119941018298 -0.007897656478952575 -0.007580683836364496
                      }
                    }
                  }
                }
                JOINT leftLittleProximal
                {
                  OFFSET 0.678269929308182 0.08192620621401336 -0.323876516389586
                  CHANNELS 3 Yrotation Xrotation Zrotation
                  JOINT leftLittleIntermediate
                  {
                    OFFSET 0.34904545821382604 -0.0000017106393073174075 8.629360392919949e-9
                    CHANNELS 3 Yrotation Xrotation Zrotation
                    JOINT leftLittleDistal
                    {
                      OFFSET 0.2011060672849896 0.0031247840072243793 0.0038660318003989197
                      CHANNELS 3 Yrotation Xrotation Zrotation
                      End Site
                      {
                        OFFSET 0.2011060672849896 0.0031247840072243793 0.0038660318003989197
                      }
                    }
                  }
                }
                JOINT leftMiddleProximal
                {
                  OFFSET 0.7368181082522638 0.0819260272939426 0.02272335773438093
                  CHANNELS 3 Yrotation Xrotation Zrotation
                  JOINT leftMiddleIntermediate
                  {
                    OFFSET 0.41136739116025356 -0.0000015892429323649537 5.27860346960507e-8
                    CHANNELS 3 Yrotation Xrotation Zrotation
                    JOINT leftMiddleDistal
                    {
                      OFFSET 0.25378150303820757 -0.0000015332469289752737 1.3442958385345705e-8
                      CHANNELS 3 Yrotation Xrotation Zrotation
                      End Site
                      {
                        OFFSET 0.25378150303820757 -0.0000015332469289752737 1.3442958385345705e-8
                      }
                    }
                  }
                }
                JOINT leftRingProximal
                {
                  OFFSET 0.7284256823094712 0.08192611199801392 -0.1508405069143483
                  CHANNELS 3 Yrotation Xrotation Zrotation
                  JOINT leftRingIntermediate
                  {
                    OFFSET 0.381593741461262 -0.0000016975471202052006 6.592486757883709e-8
                    CHANNELS 3 Yrotation Xrotation Zrotation
                    JOINT leftRingDistal
                    {
                      OFFSET 0.22014536669820362 -0.0027420652959939673 -0.005037497035641991
                      CHANNELS 3 Yrotation Xrotation Zrotation
                      End Site
                      {
                        OFFSET 0.22014536669820362 -0.0027420652959939673 -0.005037497035641991
                      }
                    }
                  }
                }
                JOINT leftThumbProximal
                {
                  OFFSET 0.10842212958334652 -0.16573713992498873 -0.07779936144556289
                  CHANNELS 3 Yrotation Xrotation Zrotation
                  JOINT leftThumbIntermediate
                  {
                    OFFSET 0.40720553822379024 -0.01751267955631075 0.31852684427382305
                    CHANNELS 3 Yrotation Xrotation Zrotation
                    JOINT leftThumbDistal
                    {
                      OFFSET 0.23412859218032667 -0.01859690713588802 0.2146635043319005
                      CHANNELS 3 Yrotation Xrotation Zrotation
                      End Site
                      {
                        OFFSET 0.23412859218032667 -0.01859690713588802 0.2146635043319005
                      }
                    }
                  }
                }
              }
            }
          }
        }
        JOINT rightShoulder
        {
          OFFSET -1.1700037144859516 -0.41760703856471126 0
          CHANNELS 3 Yrotation Xrotation Zrotation
          JOINT rightUpperArm
          {
            OFFSET -1.1803910289368023 0 0
            CHANNELS 3 Yrotation Xrotation Zrotation
            JOINT rightLowerArm
            {
              OFFSET -2.440617418222133 0 0
              CHANNELS 3 Yrotation Xrotation Zrotation
              JOINT rightHand
              {
                OFFSET -2.3832181162662343 0 0
                CHANNELS 3 Yrotation Xrotation Zrotation
                JOINT rightIndexProximal
                {
                  OFFSET -0.7310168852843362 0.08192787643494381 0.20404785424302163
                  CHANNELS 3 Yrotation Xrotation Zrotation
                  JOINT rightIndexIntermediate
                  {
                    OFFSET -0.3688846010723953 -0.01066191355993129 -0.014226020535245201
                    CHANNELS 3 Yrotation Xrotation Zrotation
                    JOINT rightIndexDistal
                    {
                      OFFSET -0.22711216276130997 -0.007898902439410271 -0.007580718044857868
                      CHANNELS 3 Yrotation Xrotation Zrotation
                      End Site
                      {
                        OFFSET -0.22711216276130997 -0.007898902439410271 -0.007580718044857868
                      }
                    }
                  }
                }
                JOINT rightLittleProximal
                {
                  OFFSET -0.6782685897119165 0.08192501740206293 -0.3238766118101876
                  CHANNELS 3 Yrotation Xrotation Zrotation
                  JOINT rightLittleIntermediate
                  {
                    OFFSET -0.34904682243945895 -2.664019085329983e-7 3.792712677253007e-8
                    CHANNELS 3 Yrotation Xrotation Zrotation
                    JOINT rightLittleDistal
                    {
                      OFFSET -0.20110609302945537 0.0031260842677420797 0.0038661724369087186
                      CHANNELS 3 Yrotation Xrotation Zrotation
                      End Site
                      {
                        OFFSET -0.20110609302945537 0.0031260842677420797 0.0038661724369087186
                      }
                    }
                  }
                }
                JOINT rightMiddleProximal
                {
                  OFFSET -0.7368168209984411 0.08192485183145659 0.022723294831187846
                  CHANNELS 3 Yrotation Xrotation Zrotation
                  JOINT rightMiddleIntermediate
                  {
                    OFFSET -0.4113687575187084 -9.03141548214137e-8 4.759541079313312e-8
                    CHANNELS 3 Yrotation Xrotation Zrotation
                    JOINT rightMiddleDistal
                    {
                      OFFSET -0.2537822083525749 -9.554208624251714e-8 -1.6364827826187422e-9
                      CHANNELS 3 Yrotation Xrotation Zrotation
                      End Site
                      {
                        OFFSET -0.2537822083525749 -9.554208624251714e-8 -1.6364827826187422e-9
                      }
                    }
                  }
                }
                JOINT rightRingProximal
                {
                  OFFSET -0.7284243957721679 0.08192492753028224 -0.15084062217729294
                  CHANNELS 3 Yrotation Xrotation Zrotation
                  JOINT rightRingIntermediate
                  {
                    OFFSET -0.381595106800805 -2.5662436442530634e-7 2.929475539925619e-8
                    CHANNELS 3 Yrotation Xrotation Zrotation
                    JOINT rightRingDistal
                    {
                      OFFSET -0.22014544912608125 -0.002738002524970362 -0.0050375115645966
                      CHANNELS 3 Yrotation Xrotation Zrotation
                      End Site
                      {
                        OFFSET -0.22014544912608125 -0.002738002524970362 -0.0050375115645966
                      }
                    }
                  }
                }
                JOINT rightThumbProximal
                {
                  OFFSET -0.10842026863657162 -0.16573778435706465 -0.07779917642461898
                  CHANNELS 3 Yrotation Xrotation Zrotation
                  JOINT rightThumbIntermediate
                  {
                    OFFSET -0.40720600760521597 -0.017512298079938038 0.3185267362029824
                    CHANNELS 3 Yrotation Xrotation Zrotation
                    JOINT rightThumbDistal
                    {
                      OFFSET -0.2341289751103648 -0.018594162598156494 0.21466399510514025
                      CHANNELS 3 Yrotation Xrotation Zrotation
                      End Site
                      {
                        OFFSET -0.2341289751103648 -0.018594162598156494 0.21466399510514025
                      }
                    }
                  }
                }
              }
            }
          }
        }
      }
    }
  }
  JOINT leftUpperLeg
  {
    OFFSET -0.8565189721517369 0.4427277044191169 0
    CHANNELS 3 Yrotation Xrotation Zrotation
    JOINT leftLowerLeg
    {
      OFFSET 0 -3.918486704769693 0
      CHANNELS 3 Yrotation Xrotation Zrotation
      JOINT leftFoot
      {
        OFFSET 6.174701361744139e-7 -0.055233446196002234 4.612027801972084
        CHANNELS 3 Yrotation Xrotation Zrotation
        JOINT leftToes
        {
          OFFSET -3.4372540951010944e-7 -0.705284859504459 1.2256624571888697
          CHANNELS 3 Yrotation Xrotation Zrotation
          End Site
          {
            OFFSET -3.4372540951010944e-7 -0.705284859504459 1.2256624571888697
          }
        }
      }
    }
  }
  JOINT rightUpperLeg
  {
    OFFSET 0.8565189732197466 0.44272769569168136 0
    CHANNELS 3 Yrotation Xrotation Zrotation
    JOINT rightLowerLeg
    {
      OFFSET 0 -3.918486692649319 0
      CHANNELS 3 Yrotation Xrotation Zrotation
      JOINT rightFoot
      {
        OFFSET 6.995136552362391e-7 -0.05523244834012664 4.612028499942008
        CHANNELS 3 Yrotation Xrotation Zrotation
        JOINT rightToes
        {
          OFFSET -4.2566694985479714e-7 -0.7052846587611067 1.22566236096697
          CHANNELS 3 Yrotation Xrotation Zrotation
          End Site
          {
            OFFSET -4.2566694985479714e-7 -0.7052846587611067 1.22566236096697
          }
        }
      }
    }
  }
}
MOTION
Frames: 4
Frame Time: 0.03333333333333333
0.01424748357385397 -0.09551406037806842 0.0985589548945427 1.0950839188807742 10.99391272729817 -3.351380767308195 1.8417697476331878 1.0766885839463312 0.757664713446494 7.058693749411441 4.279101971145224 1.6910006284971983 0 0 0 -1.5065994528011903 10.749688745724955 0.6592606803808947 -12.416548489076284 -16.69430419395681 6.012312841643903 0 0 0 0 0 0 1.889350080472073 -1.5804421560054966 0.38324733260137467 -36.729669793864915 6.040100978053424 -69.75216870194446 -27.12052118268449 -2.8056373317375214 0.9469454675345116 12.477543642116423 -19.192150164016276 -4.103463242203051 -5.491850855160723 -2.7914473390148475 -18.137723113388567 0.4453387878926321 0.1882169533077673 -13.165868015586952 -1.281281483810888e-10 1.793762613445802e-24 1.6042536111691759e-12 5.6939909339196 -1.8015923407833125 -20.36368731082112 -5.828583104963853 -0.6861283778070048 -22.321464329919557 4.171116073730225e-11 5.950788745874541e-26 -1.634838641478621e-13 -3.295889266827123 -2.5099147130541573 -22.467370317112273 -1.489433862539144 -0.3745486038969385 -20.973488212785004 1.139979627027678e-10 6.3611093629270335e-15 -1.43444452663829e-12 0.04452136590032838 -3.687304568352656 -21.735320544449582 -2.828369702844235 -0.489301436329672 -23.936637967582175 0.0000021541433768790767 0.000010020030867590694 0.000002508464699947598 15.36597647478789 -7.622974185019557 -2.9380931750405357 -1.100776672926355 1.70767673624704 2.1847842556000585 -5.930696856770178e-7 -0.0000015233442213487932 0.0000013888317956493386 -3.213654136954579 -2.932878945979862 -5.681179419496192 41.0200348413328 -60.442401605273766 -13.609694516713061 120.07977080683672 -5.653114697646894 -11.982846648244907 -16.381450254864344 -32.2228723895793 14.808707787480024 -0.7794243592605554 -10.500988927265889 25.065608751204103 -0.1945404739678406 0.06599170819572985 6.907803640572881 3.933694872703174e-10 3.1805546814635168e-15 -4.874754472204794e-12 7.525913803447719 3.5111794096149143 11.498226424776062 3.127149753489767 -0.47887200553770287 16.833493974507547 1.6628260911929426e-9 -3.1805543023118527e-15 -2.179830267765673e-11 -0.0448560305648608 -4.161607615234762 20.76602640471533 0.8066296555485323 -0.12133414576581684 10.506224266613781 -0.0000014743405757050483 -9.132685423454265e-7 -0.0000031878619167886448 4.291634062202464 -2.4988351689513477 19.198840712104374 1.4656592704071274 -0.6822734750231099 17.80718131483747 0.0000071191345732703154 -0.0000057210474143868385 0.000003743473980982128 29.143006542397472 -41.977951501383764 -5.709662695543299 -1.6002986601932423 -2.2076268436327666 2.0348841954360055 0.0000036014121906907523 -0.0000019841124502742856 7.092165708682037e-7 6.315883546543917 -22.218609852152003 2.412512604692063 -0.11224038749066774 15.2620106761982 -0.5957473422914746 3.5740291673803184 -4.349255549770755 -0.18556284494571565 -0.02501167009414199 0.2532256589050473 0.062256814956041316 -1.4563755681130919 -13.313725347048658 4.409095159419813 -0.040671741465417445 3.1735839162504877 -0.04102095008040763 -3.52355940816784 -0.8379822414945082 -0.7091208270363742 -0.11027302485165205 -0.00001003413726371392 0.0014253262227480051
0.01954559236764908 -0.09826636445521686 0.08965279161930084 1.1534610118904487 11.051280852245275 -3.4808816823402324 1.848158993921086 1.0874313990412825 0.7609033204377392 7.066499224181615 4.325744867731612 1.6506611858758662 0 0 0 -1.4883992112850544 10.847401134536442 0.6114725523250282 -12.453338497553622 -16.679002233336348 6.150355066489986 0 0 0 0 0 0 1.8906112715361916 -1.580089733618835 0.38182037208782466 -36.625791933986505 6.15208897573849 -69.6005083148394 -27.531943492305302 -2.854631768274568 0.9724326779162882 12.678204391627101 -19.03990065145592 -3.976777916780104 -5.488480949501758 -2.779865019672038 -18.07260847835632 0.4452906575980884 0.18830078366017733 -13.171858851805625 -1.281281483810888e-10 1.793762613445802e-24 1.6042536111691759e-12 5.691454435065268 -1.8070779950339313 -20.296872393482065 -5.828567815391126 -0.6861627446605565 -22.321271502688187 4.171116073730225e-11 5.950788745874541e-26 -1.634838641478621e-13 -3.2914339354197795 -2.5020721320700385 -22.411736196467757 -1.4904535491185218 -0.3748136796015031 -20.984474290616912 1.139979627027678e-10 6.3611093629270335e-15 -1.43444452663829e-12 0.0559205487541059 -3.675044697012822 -21.66631522917839 -2.8279152787559085 -0.4891077827357661 -23.931754679295402 0.0000021541433768790767 0.000010020030867590694 0.000002508464699947598 15.363101197858485 -7.63058804544116 -2.901306023078149 -1.0996007122089395 1.7013065805177428 2.199186514662744 -5.930696856770178e-7 -0.0000015233442213487932 0.0000013888317956493386 -3.2165362181678954 -2.939408640996199 -5.721022687218907 40.90494171902466 -60.54075299105171 -13.290534256607083 120.0559930512872 -5.65518492567235 -11.980159109232465 -16.22587708658934 -31.68400831560844 14.83177273723407 -0.798493133959929 -10.493283583402409 25.0934369328957 -0.19445452341120598 0.06593612616050158 6.904806708177774 3.933694872703174e-10 3.1805546814635168e-15 -4.874754472204794e-12 7.669182163703175 3.222087192257601 12.045769321033797 3.1510517872616903 -0.48146820892259534 16.9661648843409 1.6628260911929426e-9 -3.1805543023118527e-15 -2.179830267765673e-11 -0.018671035330319656 -4.165157582627504 20.971807764218884 0.8029978666865636 -0.12076791915185495 10.45683476835173 -0.0000014743405757050483 -9.132685423454265e-7 -0.0000031878619167886448 4.3829685883190574 -2.6294967007011327 19.66672447529655 1.4864463912884494 -0.6855019298784476 18.003094035431328 0.0000071191345732703154 -0.0000057210474143868385 0.000003743473980982128 29.166624395472347 -41.986818290975805 -5.73286159293299 -1.600268863025389 -2.2077306541828463 2.034293992091884 0.0000036014121906907523 -0.0000019841124502742856 7.092165708682037e-7 6.273106386264508 -22.511871342548698 2.512713486012317 -0.11635382506956786 15.559459107778965 -0.6096069815150307 3.492682837206361 -4.42768904128816 -0.14032978326423087 -0.025001499751000692 0.2526835073560766 0.06226007962729341 -1.4108611921697238 -13.504837862061402 4.506362761798062 -0.04202357974581138 3.3196732762328547 -0.04784924222271221 -3.6545031360160096 -0.852013883156891 -0.6773844374171711 -0.1102609119605279 -0.000044503837184403125 0.001420061215785756
0.02504836954176426 -0.10096717011927936 0.08205007016658783 1.1994910049411571 11.089891526713782 -3.6145969265789875 1.8554809526663756 1.0925221985105729 0.7649347047538266 7.078572714131083 4.349626301501352 1.6126465935824619 0 0 0 -1.4696336782243626 10.948554285208942 0.5775975598958855 -12.48618790565221 -16.61787789932186 6.30315206538422 0 0 0 0 0 0 1.898174546853928 -1.5813864689359414 0.3962866525939658 -36.55084866426473 6.280460758853065 -69.50131197608609 -27.95866774295004 -2.9052645186024475 0.9992974469718678 12.877794823679436 -18.97612090022514 -3.8636842247202847 -5.484698717719127 -2.7773697072121535 -18.081141835488403 0.44537595280367615 0.18816397903531112 -13.164018218409154 -1.281281483810888e-10 1.793762613445802e-24 1.6042536111691759e-12 5.679684606051611 -1.8131009583932025 -20.29858395112826 -5.828655921525091 -0.6862581073439877 -22.32203863761891 4.171116073730225e-11 5.950788745874541e-26 -1.634838641478621e-13 -3.293797068259025 -2.504712599157298 -22.42176583663952 -1.4897582646852323 -0.3746138922956979 -20.976813544101883 1.139979627027678e-10 6.3611093629270335e-15 -1.43444452663829e-12 0.06363342882016998 -3.6680875302752005 -21.6559914706157 -2.8284457674254946 -0.48938729707342643 -23.937952893242368 0.0000021541433768790767 0.000010020030867590694 0.000002508464699947598 15.370086925506097 -7.625768530999126 -2.8898255122938954 -1.0995962699295019 1.7012425192560663 2.1993745515049903 -5.930696856770178e-7 -0.0000015233442213487932 0.0000013888317956493386 -3.1844012582689354 -2.937588777475194 -5.701287659736526 40.75653615371679 -60.63272519841701 -12.98950746023913 120.04718940984608 -5.656063037475965 -11.979229069595545 -16.104013057468407 -31.20206006414254 14.96820377527049 -0.8350510344832042 -10.470602818042897 25.07972346507209 -0.19625674690222925 0.06779751405957259 6.9987786085705155 3.933694872703174e-10 3.1805546814635168e-15 -4.874754472204794e-12 7.721733169332072 2.9953526811638507 12.464894309951251 3.1587296409495824 -0.4802564479994311 17.012404260938478 1.6628260911929426e-9 -3.1805543023118527e-15 -2.179830267765673e-11 -0.030406714729146557 -4.148449248873665 21.08844517088955 0.8011202157857467 -0.12048571965592668 10.431039314373269 -0.0000014743405757050483 -9.132685423454265e-7 -0.0000031878619167886448 4.43966819550777 -2.6717492751079663 19.75131771660785 1.495837134196816 -0.6867161364202297 18.093470877283355 0.0000071191345732703154 -0.0000057210474143868385 0.000003743473980982128 29.191205244899624 -41.99606311922539 -5.756938724236022 -1.6002389704129876 -2.2078062692794442 2.0336204150871993 0.0000036014121906907523 -0.0000019841124502742856 7.092165708682037e-7 6.226988740938197 -22.778358964731588 2.622289523988556 -0.12019632620647078 15.863682437354246 -0.6237641734705147 3.4278271906914703 -4.521162046305629 -0.09865739914924215 -0.02499257786380303 0.255226096930689 0.062252760244959925 -1.3569729722687758 -13.66412853702404 4.604172945446347 -0.042519774021505564 3.4545287058259735 -0.05029376824324362 -3.7721197309582544 -0.8684921311345586 -0.6484506169370793 -0.11027469237520912 -0.000047719115177213776 0.00142216855259198
0.030622228980064392 -0.10349440705775592 0.07582244277000427 1.2241561735075632 11.100765237265145 -3.7441608435633786 1.8586937247464455 1.0943751180167163 0.7664035817692213 7.075213803588537 4.361071745578577 1.5646640987348865 0 0 0 -1.445660685361017 11.036278851334144 0.5899470212054527 -12.442388906729866 -16.60253036772867 6.401695944167922 0 0 0 0 0 0 1.9365237315777521 -1.5901664111643623 0.4872042756542697 -36.55358208723582 6.336851629718219 -69.51395743042704 -28.26499614774559 -2.941207348715142 1.0185905622029285 13.005975264756243 -19.016087164446255 -3.71395247439043 -5.484090219689184 -2.7783388118358494 -18.094213720572828 0.4453522078138922 0.1880846443596369 -13.16205661863513 -1.281281483810888e-10 1.793762613445802e-24 1.6042536111691759e-12 5.665252488808451 -1.8204302339603642 -20.302144932672462 -5.828783872562151 -0.6863718274798765 -22.32304328119332 4.171116073730225e-11 5.950788745874541e-26 -1.634838641478621e-13 -3.293365617269357 -2.5060699025799713 -22.441492327893872 -1.4890292669211032 -0.37441357137452524 -20.968939726117963 1.139979627027678e-10 6.3611093629270335e-15 -1.43444452663829e-12 0.0561628282242053 -3.675061379905266 -21.6727236869922 -2.8280853159817765 -0.4891956712633631 -23.933766771583468 0.0000021541433768790767 0.000010020030867590694 0.000002508464699947598 15.352197319647454 -7.639693156636308 -2.8985464785235573 -1.100353198964084 1.7065104974541674 2.1854430046211077 -5.930696856770178e-7 -0.0000015233442213487932 0.0000013888317956493386 -3.103408626626529 -2.9209756869895815 -5.579581693768979 40.70459803433779 -60.69073021136143 -12.839563050750973 120.04015866126574 -5.656886670667285 -11.97874725224464 -16.049213575662964 -30.809706549915894 15.148003079682768 -0.8946805665625045 -10.432817091867289 25.064386450663022 -0.19891827272564072 0.07065188821592035 7.141864668112691 3.933694872703174e-10 3.1805546814635168e-15 -4.874754472204794e-12 7.735711086595396 2.8107360008463416 12.797586183149704 3.1809533454272536 -0.48117359325823555 17.137570316860646 1.6628260911929426e-9 -3.1805543023118527e-15 -2.179830267765673e-11 -0.0593491766843992 -4.120594964013237 21.155833052937233 0.8013016731036234 -0.12052161824910562 10.433761542605726 -0.0000014743405757050483 -9.132685423454265e-7 -0.0000031878619167886448 4.492519434513575 -2.711988060018999 19.83621710192163 1.5014924444648923 -0.6874474461303282 18.14803291787556 0.0000071191345732703154 -0.0000057210474143868385 0.000003743473980982128 29.216512392291765 -42.00557125438862 -5.781737915085135 -1.6001925187807235 -2.2079053805983246 2.032922716169772 0.0000036014121906907523 -0.0000019841124502742856 7.092165708682037e-7 6.193172779197364 -22.999493432167135 2.7299858674467483 -0.1234801841847562 16.161170606232965 -0.6374925855282938 3.379222923896429 -4.625451290362434 -0.0603422549383974 -0.025008617278633655 0.24370764742824447 0.06228306420919865 -1.2760227362181846 -13.787413214923877 4.689417484649751 -0.042468721552626765 3.5885557602553506 -0.05229281321609409 -3.8904836103200746 -0.8941926380394492 -0.6163181989169594 -0.11028504436144723 -0.00008768803546394411 0.001424948840622619
